# xmcd CD database file
#
# Track frame offsets:
#	150
#	37775
#	52963
#	85136
#	122037
#	148433
#	175820
#	214297
#
# Disc length: 3197 seconds
#
# Revision: 4
# Processed by: cddbd v1.5.2PL0 Copyright (c) Steve Scherf et al.
# Submitted via: CDex 1.79
#
DISCID=6e0c7b08
DTITLE=RCS LIbri/Zago - Canti dell'anima (Viaggio nel Buddhismo)
DYEAR=1998
DGENRE=New Age
TTITLE0=Over the Potala Temple
TTITLE1=Mantras of Life
TTITLE2=PeacefulPath
TTITLE3=Practice, Lve and Compassion
TTITLE4=The Roots of the Sutras
TTITLE5=Bohisattva
TTITLE6=Under the Bothi Tree
TTITLE7=Illuminations
EXTD=YEAR: 1998
EXTT0=
EXTT1=
EXTT2=
EXTT3=
EXTT4=
EXTT5=
EXTT6=
EXTT7=
PLAYORDER=
